# xmcd
#
# Track frame offsets: 
#        182
#        12795
#        25732
#        37082
#        49907
#        61945
#        71832
#        81982
#        94982
#        106045
#        118070
#        126895
#        139795
#        152270
#
# Disc length: 2152 seconds
#
# Revision: 3
# Processed by: cddbd v1.5.2PL0 Copyright (c) Steve Scherf et al.
# Submitted via: ExactAudioCopy v0.99pb4
#
DISCID=b808660e
DTITLE=Various Artist - Country No1's Volume 2 [CD 2)
DYEAR=1989
DGENRE=Country
TTITLE0=Hank Snow - I've Been Everywhere
TTITLE1=Jim Reeves - Four Walls
TTITLE2=Eddy Arnold - Turn The World Arround The Other Way
TTITLE3=Porter Wagoner - Please Don't Stop Loving Me
TTITLE4=Elvis Presley - I Want You I Need You I Love You
TTITLE5=Eddy Arnold - I Wanna Play House With You
TTITLE6=Jim Reeves - It Is Really Over
TTITLE7=Jim Reeves - Distant Drums
TTITLE8=Hank Snow - Let Me Go Lover
TTITLE9=Eddy Arnold - I'm Throwing Rice (At The Girl I Love)
TTITLE10=Johnnie and Mack - Oh Baby Mine I Get So Lonely
TTITLE11=Hank Snow - I'm Moving On
TTITLE12=Jim Reeves - Blue Side Of Lonesome
TTITLE13=Elvis Presley - Don't Be Cruel  (To A Heart That's True)
EXTD=COUNTRY No1's Volume 2 (3 Disc-Set]\nBMG Records (UK) Ltd.\nCD 74
EXTD=335\nEAN: 0035627433528
EXTT0=
EXTT1=
EXTT2=
EXTT3=
EXTT4=
EXTT5=
EXTT6=
EXTT7=
EXTT8=
EXTT9=
EXTT10=
EXTT11=
EXTT12=
EXTT13=
PLAYORDER=
